<svg width="17" height="20" viewBox="0 0 20 26" fill="#DFEEB6" xmlns="http://www.w3.org/2000/svg">
<path d="M9.39663 25.3635C2.302 15.0784 0.985107 14.0229 0.985107 10.2429C0.985107 5.06523 5.18242 0.86792 10.3601 0.86792C15.5378 0.86792 19.7351 5.06523 19.7351 10.2429C19.7351 14.0229 18.4182 15.0784 11.3236 25.3635C10.858 26.0361 9.86216 26.036 9.39663 25.3635ZM10.3601 14.1492C12.5175 14.1492 14.2664 12.4003 14.2664 10.2429C14.2664 8.08555 12.5175 6.33667 10.3601 6.33667C8.20273 6.33667 6.45386 8.08555 6.45386 10.2429C6.45386 12.4003 8.20273 14.1492 10.3601 14.1492Z" fill="#DFEEB6"/>
</svg>
